<svg xmlns="http://www.w3.org/2000/svg" viewBox="0 0 300.88 122.63"><defs><style>.cls-1{fill:#fff}</style></defs><g id="Layer_2" data-name="Layer 2"><g id="Layer_1-2" data-name="Layer 1"><path class="cls-1" d="M47 59.47q0 10.14-6.12 16.14-6.88 6.68-21 6.85a80.7 80.7 0 01-13.2-1.07V37.44a77.81 77.81 0 0113.2-1q14.1.11 21 6.91 6.07 5.92 6.12 16.12m6.74 0q0-13.26-8.27-21.07-8.99-8.67-25.47-8.72a108 108 0 00-20 2.21v90.54h6.68V88.18A103.57 103.57 0 0020 89.26q16.43-.18 25.43-8.89 8.27-8 8.27-20.9M62.39 30.7h6.81v57.4h-6.81zM184 53.18h-40.5a20.49 20.49 0 017.59-12.46 21.43 21.43 0 0113.53-4.47 18.48 18.48 0 0114.22 5.94 20.73 20.73 0 015.15 11m7.42 6.17q0-13.64-7.7-21.69a25 25 0 00-19.09-8 27.82 27.82 0 00-20.1 8.21q-8.45 8.16-8.44 21.52t8.44 21.58a27.62 27.62 0 0020.1 8.33A38.63 38.63 0 00188 81.44L184 76a32.89 32.89 0 01-19.37 6.51 22 22 0 01-15.46-6.06q-6.39-6.12-6.4-17.05zM219.62 88.07L218 83a20.76 20.76 0 01-4.47.56q-7.37 0-7.36-9.45V0h-6.8v75.21q0 14.06 13.48 14.05a23.58 23.58 0 006.8-1.19M247.82 88.07l-1.64-5a20.77 20.77 0 01-4.48.56q-7.37 0-7.36-9.45V0h-6.8v75.21q0 14.06 13.48 14.05a23.52 23.52 0 006.8-1.19"/><path class="cls-1" d="M293.24 53.18h-40.49a20.52 20.52 0 017.58-12.46 21.48 21.48 0 0113.54-4.47 18.51 18.51 0 0114.22 5.94 20.8 20.8 0 015.15 11m7.42 6.17q0-13.64-7.7-21.69a25 25 0 00-19.09-8 27.86 27.86 0 00-20.11 8.21q-8.43 8.16-8.43 21.52t8.43 21.58a27.66 27.66 0 0020.11 8.33 38.66 38.66 0 0023.39-7.82l-4-5.49a32.89 32.89 0 01-19.37 6.51 22 22 0 01-15.46-6.06Q252 70.28 252 59.35z"/><path d="M103.9 57.31v7.11a1.12 1.12 0 01-.45.89L81.3 87.88a1.13 1.13 0 01-1.81-.88v-7.07a1.1 1.1 0 01.44-.88l22.15-22.63a1.13 1.13 0 011.82.89z" fill="#ee3138"/><path d="M103.9 61.5v-7.11a1.12 1.12 0 00-.45-.89L81.3 30.93a1.13 1.13 0 00-1.81.89v7a1.11 1.11 0 00.44.89l22.15 22.62a1.13 1.13 0 001.82-.83z" fill="#f58220"/><path d="M103.9 61.5v-4.19a1.13 1.13 0 00-1.82-.89l-2.92 3 2.92 3a1.13 1.13 0 001.82-.92z" fill="#c33b32"/><path d="M106.71 57.31v7.11a1.12 1.12 0 00.45.89l22.15 22.57a1.13 1.13 0 001.81-.89v-7.06a1.1 1.1 0 00-.44-.88l-22.15-22.63a1.13 1.13 0 00-1.82.89z" fill="#73bb44"/><path d="M106.71 61.5v-7.11a1.12 1.12 0 01.45-.89l22.15-22.57a1.13 1.13 0 011.81.89v7a1.11 1.11 0 01-.44.89l-22.15 22.67a1.13 1.13 0 01-1.82-.88z" fill="#1099d6"/><path d="M106.71 61.5v-4.19a1.13 1.13 0 011.82-.89l2.92 3-2.92 3a1.13 1.13 0 01-1.82-.92z" fill="#038442"/><path class="cls-1" d="M20.19 119.8l1.21-1.43a8.27 8.27 0 005.94 2.45c2.33 0 3.87-1.24 3.87-2.95v-.05c0-1.61-.87-2.53-4.51-3.29-4-.87-5.82-2.16-5.82-5 0-2.73 2.4-4.73 5.7-4.73a9.05 9.05 0 016.09 2.12l-1.14 1.52a7.59 7.59 0 00-5-1.89c-2.26 0-3.7 1.24-3.7 2.8 0 1.64.9 2.55 4.71 3.37s5.65 2.25 5.65 4.9c0 3-2.48 4.91-5.92 4.91a10.13 10.13 0 01-7.08-2.73zM36.24 105h6.48c3.92 0 6.49 2.08 6.49 5.5v.05c0 3.74-3.12 5.67-6.81 5.67h-4.21v6.12h-1.95zm6.24 9.44c2.87 0 4.75-1.54 4.75-3.82 0-2.48-1.86-3.77-4.65-3.77h-4.39v7.63zM51.62 105h12.53v1.79H53.58v5.91H63v1.79h-9.42v6.06h10.7v1.79H51.62zM65.78 113.71a8.73 8.73 0 018.76-9 9 9 0 016.76 2.74l-1.3 1.43a7.53 7.53 0 00-5.45-2.38 6.8 6.8 0 00-6.71 7.11 6.84 6.84 0 006.71 7.16 7.55 7.55 0 005.6-2.5l1.28 1.26a9 9 0 01-6.93 3 8.65 8.65 0 01-8.72-8.82zM83.88 105h2v17.34h-2zM96.05 104.87h1.83l7.9 17.46h-2.11l-2-4.58h-9.46l-2.06 4.58h-2zm4.82 11.13l-3.93-8.84L93 116zM108.06 105h2v15.53h9.76v1.81h-11.76zM122.79 106.8H117V105h13.6v1.81h-5.82v15.53h-2zM139.12 115.47L131.91 105h2.38l5.84 8.67L146 105h2.28l-7.21 10.45v6.89h-2zM155.74 119.8l1.22-1.43a8.25 8.25 0 005.94 2.45c2.33 0 3.86-1.24 3.86-2.95v-.05c0-1.61-.86-2.53-4.5-3.29-4-.87-5.82-2.16-5.82-5 0-2.73 2.4-4.73 5.69-4.73a9 9 0 016.09 2.12l-1.13 1.52a7.61 7.61 0 00-5-1.89c-2.25 0-3.69 1.24-3.69 2.8 0 1.64.89 2.55 4.71 3.37s5.64 2.25 5.64 4.9c0 3-2.47 4.91-5.91 4.91a10.15 10.15 0 01-7.1-2.73zM170.26 113.71a8.84 8.84 0 1117.68 0 8.84 8.84 0 11-17.68 0zm15.65 0a6.89 6.89 0 00-6.83-7.16 6.81 6.81 0 00-6.79 7.11 6.89 6.89 0 006.84 7.16 6.81 6.81 0 006.78-7.11zM190.72 105h2v15.53h9.76v1.81h-11.76zM203.18 115.07V105h2v10c0 3.74 2 5.84 5.3 5.84s5.22-1.93 5.22-5.72V105h2v9.93c0 5.06-2.9 7.68-7.23 7.68s-7.29-2.61-7.29-7.54zM225.69 106.8h-5.82V105h13.62v1.81h-5.82v15.53h-2zM236 105h1.95v17.34H236zM241.13 113.71a8.84 8.84 0 1117.68 0 8.84 8.84 0 11-17.68 0zm15.65 0a6.9 6.9 0 00-6.84-7.16 6.81 6.81 0 00-6.78 7.11 6.89 6.89 0 006.83 7.16 6.82 6.82 0 006.79-7.11zM262 105h1.83l10.93 13.9V105h1.9v17.34h-1.56l-11.2-14.23v14.22H262zM279.42 119.8l1.22-1.43a8.25 8.25 0 005.94 2.45c2.33 0 3.86-1.24 3.86-2.95v-.05c0-1.61-.86-2.53-4.5-3.29-4-.87-5.82-2.16-5.82-5 0-2.73 2.4-4.73 5.69-4.73a9 9 0 016.09 2.12l-1.13 1.52a7.61 7.61 0 00-5-1.89c-2.25 0-3.69 1.24-3.69 2.8 0 1.64.89 2.55 4.71 3.37s5.64 2.25 5.64 4.9c0 3-2.47 4.91-5.91 4.91a10.15 10.15 0 01-7.1-2.73zM294 106.85a3.42 3.42 0 113.43 3.38 3.37 3.37 0 01-3.43-3.38zm3.43 2.82a2.82 2.82 0 10-2.75-2.82 2.73 2.73 0 002.79 2.82zm-.72-.87h-.59v-3.89h1.49c.91 0 1.37.34 1.37 1.11a1 1 0 01-1 1.07l1.11 1.71h-.66l-1-1.68h-.68zm.71-2.18c.5 0 .94 0 .94-.64s-.43-.57-.84-.57h-.81v1.21z"/></g></g></svg>
